<?xml version="1.0" encoding="UTF-8" standalone="no"?>
<!-- Created with Inkscape (http://www.inkscape.org/) -->

<svg
   xmlns:dc="http://purl.org/dc/elements/1.1/"
   xmlns:cc="http://creativecommons.org/ns#"
   xmlns:rdf="http://www.w3.org/1999/02/22-rdf-syntax-ns#"
   xmlns:svg="http://www.w3.org/2000/svg"
   xmlns="http://www.w3.org/2000/svg"
   xmlns:sodipodi="http://sodipodi.sourceforge.net/DTD/sodipodi-0.dtd"
   xmlns:inkscape="http://www.inkscape.org/namespaces/inkscape"
   width="640"
   height="480"
   id="svg2"
   version="1.1"
   inkscape:version="0.48.4 r9939"
   sodipodi:docname="New document 1">
  <defs
     id="defs4" />
  <sodipodi:namedview
     id="base"
     pagecolor="#ffffff"
     bordercolor="#666666"
     borderopacity="1.0"
     inkscape:pageopacity="0.0"
     inkscape:pageshadow="2"
     inkscape:zoom="1.4"
     inkscape:cx="310.60724"
     inkscape:cy="259.50855"
     inkscape:document-units="px"
     inkscape:current-layer="layer1"
     showgrid="false"
     inkscape:snap-bbox="true"
     inkscape:snap-bbox-edge-midpoints="true"
     inkscape:window-width="1366"
     inkscape:window-height="744"
     inkscape:window-x="0"
     inkscape:window-y="24"
     inkscape:window-maximized="1" />
  <metadata
     id="metadata7">
    <rdf:RDF>
      <cc:Work
         rdf:about="">
        <dc:format>image/svg+xml</dc:format>
        <dc:type
           rdf:resource="http://purl.org/dc/dcmitype/StillImage" />
        <dc:title></dc:title>
      </cc:Work>
    </rdf:RDF>
  </metadata>
  <g
     inkscape:label="Layer 1"
     inkscape:groupmode="layer"
     id="layer1"
     transform="translate(0,-572.36218)">
    <path
       style="fill:none;stroke:#000000;stroke-width:5.68713522;stroke-miterlimit:4;stroke-opacity:1"
       d="m 113.85552,596.10658 c 0,0 292.21754,-23.42644 435.47207,0 19.42563,3.17668 0,289.23146 0,289.23146 l -435.47207,0 z"
       id="rect2985"
       inkscape:connector-curvature="0"
       sodipodi:nodetypes="csccc" />
    <path
       style="fill:none;stroke:#000000;stroke-width:5.68713522;stroke-linecap:butt;stroke-linejoin:miter;stroke-miterlimit:4;stroke-opacity:1;stroke-dasharray:none"
       d="m 329.96665,587.16965 c 12.99917,273.79494 0.81245,301.41818 0.81245,301.41818"
       id="path3756"
       inkscape:connector-curvature="0"
       sodipodi:nodetypes="cc" />
    <path
       style="fill:none;stroke:#000000;stroke-width:5.68713522;stroke-linecap:butt;stroke-linejoin:miter;stroke-miterlimit:4;stroke-opacity:1;stroke-dasharray:none"
       d="m 113.04306,723.25467 c 288.419,8.12448 441.97166,1.6249 441.97166,1.6249"
       id="path3756-7"
       inkscape:connector-curvature="0"
       sodipodi:nodetypes="cc" />
    <path
       style="fill:#000000;fill-opacity:0.30593609;stroke:none"
       id="path3782"
       d="m 192.73322,611.56377 c 0.10133,2.4597 -0.29408,4.81395 -1.18093,7.1038 -0.97626,2.16698 -2.63042,3.79772 -4.48866,5.21717 -3.64957,2.50658 -7.62127,4.5405 -11.70581,6.2343 -0.75659,0.30588 -1.51125,0.54566 -2.24629,0.89548 -0.186,0.0885 -0.74155,0.35702 -0.56376,0.253 4.39203,-2.4885 5.50804,-3.15917 3.40733,-1.90989 -1.85908,1.38635 -3.73709,2.76093 -5.53343,4.22889 -1.60543,1.22638 -2.97198,2.71517 -4.4105,4.12292 -1.44546,1.44389 -2.80321,2.97145 -4.18943,4.47134 -0.94427,0.91311 -1.73268,1.91682 -2.42525,3.02963 -0.93309,1.33656 -1.83049,2.69972 -2.76708,4.03316 -1.01211,1.02279 -1.9014,2.13978 -2.7767,3.28039 -0.75574,0.76028 -1.54411,1.47717 -2.28475,2.2535 -1.02073,0.87575 -1.79127,1.99615 -2.65755,3.017 -0.75541,0.66217 -1.31011,1.47711 -1.92347,2.26028 -0.69401,0.934 -1.58557,1.68153 -2.3689,2.53354 0,0 -5.19838,2.18411 -5.19838,2.18411 l 0,0 c 0.77814,-0.87557 1.67377,-1.60682 2.41007,-2.51901 0.64968,-0.76835 1.09558,-1.67144 1.91548,-2.28791 0.93103,-0.97189 1.66317,-2.10428 2.58256,-3.08798 0.90829,-0.52089 1.42637,-1.65574 2.38465,-2.15614 0.90818,-1.09798 1.64736,-2.34153 2.75596,-3.26535 1.05875,-1.22066 1.79489,-2.72922 2.81799,-3.98708 0.68991,-1.13815 1.35162,-2.24765 2.37418,-3.12888 1.41212,-1.50381 2.79944,-3.03086 4.22709,-4.52 1.463,-1.38288 2.75648,-2.94725 4.38199,-4.15173 1.75732,-1.51514 3.71404,-2.78747 5.47357,-4.30448 2.92597,-1.71101 5.72944,-3.63912 8.97025,-4.68044 1.19528,-0.50233 2.36805,-1.0315 3.5301,-1.60735 0.39609,-0.19627 1.55664,-0.83459 1.18514,-0.59504 -0.81471,0.52531 -5.65889,3.42796 -2.51975,1.45195 1.85717,-1.35068 3.56381,-2.8606 4.61837,-4.94879 0.9671,-2.18654 1.39305,-4.47033 1.19071,-6.86502 0,0 5.0152,-2.55537 5.0152,-2.55537 z"
       inkscape:connector-curvature="0" />
    <path
       style="fill:#000000;fill-opacity:0.30593609;stroke:none"
       id="path3784"
       d="m 236.20082,615.83132 c -3.85388,4.02616 -7.51531,8.22834 -11.28705,12.32994 -5.7578,6.4728 -12.14183,12.2953 -18.72202,17.90915 -5.22519,4.34669 -10.6269,8.46292 -15.50604,13.20367 -3.03713,3.37214 -6.06181,6.74359 -9.20198,10.02116 -2.87171,2.83177 -5.6377,5.7678 -8.40483,8.70104 -1.80321,1.60564 -3.33471,3.46555 -4.90787,5.28748 -1.68396,1.92407 -2.98747,4.12704 -4.41883,6.23353 -1.78264,2.4949 -3.73614,4.86422 -5.46093,7.39954 -1.60792,2.53177 -3.08348,5.14163 -4.50304,7.78241 -1.36045,2.1383 -2.57797,4.56416 -4.52358,6.25042 0,0 -5.22098,2.0509 -5.22098,2.0509 l 0,0 c 2.11771,-1.13265 3.39118,-4.17034 4.73543,-6.05103 1.40657,-2.65517 2.8703,-5.27706 4.46321,-7.82596 1.69139,-2.54512 3.65248,-4.89427 5.4227,-7.38462 1.4371,-2.13319 2.79584,-4.32814 4.44033,-6.31233 1.56567,-1.8261 3.02049,-3.76425 4.88375,-5.30786 2.825,-2.93239 5.61007,-5.90522 8.52343,-8.75076 3.13076,-3.29323 6.18793,-6.64211 9.20153,-10.04317 4.93185,-4.78529 10.37476,-8.94841 15.67663,-13.31074 6.58215,-5.58913 12.99872,-11.36013 18.72794,-17.84204 3.67698,-4.02726 7.24783,-8.15016 10.90434,-12.19599 0,0 5.17786,-2.14474 5.17786,-2.14474 z"
       inkscape:connector-curvature="0" />
    <path
       style="fill:#000000;fill-opacity:0.30593609;stroke:none"
       id="path3786"
       d="m 292.25971,615.01888 c -3.14004,3.26521 -6.21065,6.59596 -9.40918,9.80445 -4.90338,4.78526 -9.44056,9.90789 -13.7418,15.23525 -5.12949,6.87431 -9.99355,13.93397 -15.32423,20.65623 -5.62812,7.12367 -11.42683,14.11022 -17.1196,21.18213 -4.08197,5.22641 -8.52192,10.14595 -13.3269,14.71208 -1.7379,1.58777 -3.66421,2.94411 -5.48681,4.42862 -0.44427,0.32582 -0.81781,0.72824 -1.19296,1.12766 0,0 -5.19832,2.15443 -5.19832,2.15443 l 0,0 c 0.41683,-0.39436 0.72096,-0.87081 1.20466,-1.19466 1.85689,-1.51964 3.8224,-2.89715 5.64968,-4.45402 4.92475,-4.55875 9.50551,-9.4609 13.63342,-14.76034 5.6848,-7.06639 11.46756,-14.05394 17.09319,-21.1675 5.33861,-6.69965 10.20666,-13.73907 15.2792,-20.63916 4.24299,-5.33643 8.72376,-10.4701 13.60285,-15.23946 3.14756,-3.14181 6.16892,-6.41166 9.15895,-9.70098 0,0 5.17785,-2.14473 5.17785,-2.14473 z"
       inkscape:connector-curvature="0" />
    <path
       style="fill:#000000;fill-opacity:0.30593609;stroke:none"
       id="path3788"
       d="m 298.00928,668.76862 c -2.23907,3.71712 -4.48193,7.42285 -6.87124,11.04612 -1.97822,2.80783 -4.24311,5.3936 -6.38557,8.07476 -1.45415,1.99729 -3.14539,3.79714 -4.9018,5.52788 -1.25143,1.22163 -2.44589,2.50269 -3.63244,3.7876 -0.66085,0.76711 -1.09112,1.66519 -1.43353,2.6062 -0.53621,1.1104 -1.17401,2.16693 -1.81922,3.21629 0,0 -5.1536,2.26904 -5.1536,2.26904 l 0,0 c 0.66319,-1.0159 1.28179,-2.0552 1.8592,-3.12025 0.41987,-0.95409 0.69261,-1.97705 1.3915,-2.80168 1.15638,-1.33704 2.42377,-2.58385 3.6635,-3.84202 1.76576,-1.70472 3.49576,-3.45747 4.92019,-5.46442 2.1951,-2.68724 4.4947,-5.29052 6.54903,-8.08865 2.3665,-3.56722 4.61424,-7.19753 6.70565,-10.93376 0,0 5.10833,-2.27711 5.10833,-2.27711 z"
       inkscape:connector-curvature="0" />
    <path
       style="fill:#000000;fill-opacity:0.30593609;stroke:none"
       id="path3790"
       d="m 366.38248,748.12173 c -1.60912,2.48388 -2.88832,5.1608 -4.38617,7.71208 -1.40981,2.36077 -2.90097,4.67066 -4.3691,6.99485 -0.92179,1.43962 -1.78194,2.92611 -2.53397,4.46207 -0.21832,0.45531 -0.36227,0.93774 -0.49959,1.42154 0,0 -5.09016,2.42258 -5.09016,2.42258 l 0,0 c 0.13956,-0.51555 0.28629,-1.02941 0.48326,-1.5268 0.75481,-1.56492 1.61996,-3.08066 2.5614,-4.54047 1.46187,-2.34398 3.02197,-4.62751 4.42864,-7.00695 1.51716,-2.5138 2.8245,-5.13833 4.23655,-7.71133 0,0 5.16914,-2.22757 5.16914,-2.22757 z"
       inkscape:connector-curvature="0" />
    <path
       style="fill:#000000;fill-opacity:0.30593609;stroke:none"
       id="path3792"
       d="m 394.00571,764.37068 c -2.69523,3.59752 -5.61505,7.01537 -8.39953,10.54232 -3.67799,4.60627 -6.86881,9.56039 -10.46509,14.2304 -3.14098,3.94137 -6.48059,7.71643 -9.60462,11.67173 -2.9009,3.77497 -5.96481,7.40642 -8.67571,11.32468 -0.75055,1.12104 -1.43781,2.27533 -2.30721,3.30935 0,0 -5.17585,2.17137 -5.17585,2.17137 l 0,0 c 0.97981,-0.98898 1.71017,-2.14602 2.47873,-3.3035 2.75009,-3.91694 5.8004,-7.58545 8.71632,-11.37589 3.1173,-3.99308 6.48632,-7.77398 9.68391,-11.70163 3.61479,-4.64647 6.76937,-9.60911 10.42772,-14.21917 2.72368,-3.4696 5.6152,-6.80944 8.1522,-10.42207 0,0 5.16913,-2.22759 5.16913,-2.22759 z"
       inkscape:connector-curvature="0" />
    <path
       style="fill:#000000;fill-opacity:0.30593609;stroke:none"
       id="path3794"
       d="m 415.91226,779.14693 c -3.06769,5.06814 -6.59872,9.77929 -10.36381,14.34373 -6.80137,7.82839 -14.55569,14.73731 -22.15242,21.7689 -7.18561,6.47257 -13.30896,13.99534 -19.5409,21.35991 -3.60627,3.94628 -6.70099,8.33259 -10.30427,12.27781 0,0 -5.1082,2.133 -5.1082,2.133 l 0,0 c 3.81188,-3.90781 6.9796,-8.39411 10.68032,-12.40518 6.27004,-7.37097 12.38235,-14.94673 19.58432,-21.44493 7.57156,-6.9917 15.31045,-13.85037 22.06843,-21.65828 1.40645,-1.71228 3.58572,-4.30571 4.90777,-6.13626 1.84316,-2.55205 3.38447,-5.30504 5.11871,-7.92675 0,0 5.11005,-2.31195 5.11005,-2.31195 z"
       inkscape:connector-curvature="0" />
    <path
       style="fill:#000000;fill-opacity:0.30593609;stroke:none"
       id="path3796"
       d="m 472.81316,758.68354 c -3.01865,4.2329 -6.43153,8.17004 -9.83851,12.09128 -5.03536,5.36438 -10.09009,10.70792 -14.99142,16.19578 -5.15198,6.16024 -10.48126,12.14228 -16.14111,17.83905 -5.68314,5.513 -11.37617,10.99741 -16.56885,16.98053 -4.99691,5.77855 -9.04804,12.27173 -12.68582,18.96616 -1.58431,2.8932 -3.07941,5.82792 -4.1932,8.93475 -0.68197,1.64981 -1.25148,3.33928 -1.98742,4.96662 -0.36824,0.90582 -0.72519,1.80196 -1.22857,2.64176 0,0 -5.14758,2.25546 -5.14758,2.25546 l 0,0 c 0.57631,-0.79627 0.98146,-1.64327 1.29688,-2.57769 0.74665,-1.61744 1.33281,-3.28788 2.02096,-4.92932 1.13393,-3.1954 2.75457,-6.1639 4.3999,-9.1233 3.68687,-6.71967 7.74764,-13.26504 12.73605,-19.10939 5.16191,-6.02198 10.84929,-11.52323 16.56234,-17.01833 5.66244,-5.66517 10.99075,-11.61561 16.09631,-17.78881 4.8857,-5.49379 9.94119,-10.82911 14.97875,-16.18319 3.3294,-3.83333 6.71518,-7.67449 9.52215,-11.91377 0,0 5.16914,-2.22759 5.16914,-2.22759 z"
       inkscape:connector-curvature="0" />
    <path
       style="fill:#000000;fill-opacity:0.30593609;stroke:none"
       id="path3798"
       d="m 498.57343,798.14445 c -3.67805,6.35529 -7.38785,12.68927 -11.28644,18.91215 -4.8414,7.31738 -9.05909,15.01041 -13.56518,22.53113 -3.58077,5.99403 -7.47679,11.77751 -11.58778,17.41677 -1.60807,2.1701 -3.23395,4.37048 -5.22358,6.21132 0,0 -5.16866,2.09569 -5.16866,2.09569 l 0,0 c 2.1561,-1.72529 3.80345,-4.0172 5.48078,-6.18466 4.17849,-5.64644 8.1603,-11.42542 11.78271,-17.44939 4.53564,-7.50652 8.69469,-15.23806 13.5651,-22.54144 3.84043,-6.12051 7.52551,-12.33905 10.9213,-18.71897 0,0 5.08175,-2.2726 5.08175,-2.2726 z"
       inkscape:connector-curvature="0" />
    <path
       style="fill:#000000;fill-opacity:1;stroke:none"
       id="path3800"
       d="m 499.62394,855.36484 c -1.23235,1.34758 -2.72388,2.42717 -4.08255,3.64738 -0.19806,0.17148 -0.39611,0.34294 -0.59417,0.51441 0,0 -5.18342,2.09783 -5.18342,2.09783 l 0,0 c 0.2045,-0.17042 0.409,-0.34085 0.61348,-0.51127 1.35908,-1.17495 2.72369,-2.34466 4.07752,-3.52076 0,0 5.16914,-2.22759 5.16914,-2.22759 z"
       inkscape:connector-curvature="0" />
    <path
       style="fill:#000000;fill-opacity:1;stroke:none"
       id="path3802"
       d="m 220.35643,889.42094 c -0.0812,3.33078 -0.0777,6.66321 -0.0894,9.99481 0.15696,3.94376 -0.0893,7.84103 -0.90158,11.70171 -0.75898,3.1011 -1.3057,6.25171 -1.73832,9.41366 -0.44136,3.69222 -0.53101,7.41398 -0.57654,11.12843 -0.0275,3.12604 -0.009,6.25223 -0.007,9.37834 -0.0182,3.71593 -0.0205,7.43184 -0.0143,11.14781 0.005,3.31213 0.0116,6.62427 0.0266,9.93638 0.0143,2.33522 0.0179,4.6705 0.0174,7.00574 0.002,2.50873 -0.0126,5.01745 -0.0192,7.52615 0.0153,3.05364 -0.37405,6.09114 -0.58232,9.13478 -0.18131,2.98598 -0.20726,5.97819 -0.24932,8.96849 -0.0241,3.94954 -0.0251,7.89916 -0.003,11.84876 0.0307,2.3529 0.0295,4.706 0.0545,7.0589 5.4e-4,1.1879 0.0229,2.3755 0.0193,3.5632 0.004,0.8462 -9e-4,1.6925 0.008,2.5387 0.002,0.719 -0.0156,1.4387 0.004,2.1576 0.001,0.05 0.003,0.1 0.004,0.15 0,0 -5.05092,2.5735 -5.05092,2.5735 l 0,0 c 0.001,-0.052 0.003,-0.1038 0.004,-0.1552 0.0199,-0.7204 0.003,-1.4417 0.004,-2.1623 0.009,-0.8492 0.003,-1.6983 0.009,-2.5476 -0.003,-1.1941 0.0188,-2.3882 0.0188,-3.5823 0.0238,-2.3703 0.0206,-4.7408 0.0482,-7.1111 0.0177,-3.9512 0.008,-7.9026 0.007,-11.85381 -0.0121,-2.99398 -0.003,-5.99017 0.19516,-8.97908 0.19822,-3.03336 0.61387,-6.05774 0.59519,-9.10005 -0.007,-2.50222 -0.0218,-5.00442 -0.0191,-7.50664 -4.7e-4,-2.34117 0.003,-4.68237 0.0175,-7.02351 0.0151,-3.32082 0.0214,-6.64166 0.025,-9.96251 0.004,-3.70833 -9e-4,-7.4166 -0.0294,-11.12484 -0.005,-3.13411 -0.004,-6.26831 0.0337,-9.40223 0.0643,-3.73286 0.13614,-7.47085 0.5469,-11.18545 0.40954,-3.1738 0.90241,-6.34822 1.7052,-9.44862 0.87416,-3.82544 1.19726,-7.69716 1.00739,-11.6226 -0.0116,-3.30125 -0.008,-6.60336 -0.0894,-9.90375 0,0 5.01518,-2.55537 5.01518,-2.55537 z"
       inkscape:connector-curvature="0" />
    <path
       style="fill:#000000;fill-opacity:1;stroke:none"
       id="path3804"
       d="m 212.46378,1021.7365 c 1.92225,-1.0453 3.80269,-2.1715 5.76673,-3.136 0.4266,-0.2095 0.91322,-0.2657 1.37647,-0.3719 2.81518,-0.6454 5.67882,-0.8127 8.55567,-0.8665 6.77311,0.1347 13.5492,0.2328 20.31849,0.5014 8.68627,0.1741 17.31779,1.1844 25.97468,1.8213 4.21382,0.3101 15.35672,1.0074 19.52382,1.2723 3.16029,0.178 6.31995,0.3675 9.48086,0.5341 2.79008,0.1471 5.58286,0.2428 8.37197,0.4072 6.97299,0.4109 13.92402,1.1272 20.88301,1.7161 6.36273,0.5312 12.74796,0.6552 19.12948,0.6967 3.35332,-0.01 6.70671,-0.011 10.06002,-0.027 2.78719,-0.1298 5.60493,0.1892 8.38647,-0.084 1.19371,-0.1171 2.37559,-0.3334 3.56338,-0.5002 5.85593,-0.6211 11.73752,-0.1545 17.59141,0.2148 3.18031,0.1359 6.32385,0.6639 9.49227,0.9443 2.69544,0.09 5.35794,0.5129 8.04313,0.7392 3.21136,0.2271 6.43184,0.2704 9.64997,0.2901 2.56207,0 5.124,0.015 7.68607,0.01 3.02642,-0.022 6.05288,0.01 9.07935,0.015 2.52921,9e-4 5.05834,-0.019 7.5874,-0.044 0.86135,-0.019 1.72283,-0.01 2.58426,-0.01 1.03628,0.01 2.0725,-0.01 3.10876,0 2.09523,0.1203 4.14491,-0.2713 6.17273,-0.7482 2.4094,-0.5091 9.04973,-4.5486 0.26561,0.4687 3.66455,-2.4135 7.58824,-4.1468 11.71802,-5.5279 0.80648,-0.4586 1.83011,-0.3404 2.66816,-0.6639 0.21951,-0.085 0.3906,-0.2636 0.59688,-0.3769 1.69878,-0.9683 3.93443,-2.2727 -4.13155,2.3917 0,0 5.21101,-2.1985 5.21101,-2.1985 l 0,0 c -1.82386,1.1256 -3.57184,2.3726 -5.48469,3.3353 -1.01594,0.4768 -2.21966,0.4356 -3.24371,0.9204 -2.20791,0.7492 -11.29923,4.8846 -2.11461,0.088 -3.2584,1.9118 -6.22818,4.0059 -9.8997,4.9224 -2.07461,0.4508 -4.17666,0.7641 -6.30696,0.6932 -1.03625,0.01 -2.07247,-0.01 -3.10872,-10e-5 -0.85643,0 -1.7129,0.014 -2.56923,-0.01 -2.48914,-0.026 -4.97838,-0.045 -7.46769,-0.043 -3.04343,0.01 -6.08681,0.037 -9.13023,0.023 -2.56409,0 -5.12841,0.03 -7.69225,-0.014 -3.22077,-0.05 -6.44294,-0.1151 -9.65744,-0.3349 -2.69321,-0.2296 -5.37044,-0.6073 -8.07255,-0.725 -3.13531,-0.3163 -6.24827,-0.8476 -9.39974,-0.9919 -5.77918,-0.4148 -11.59332,-0.9354 -17.37452,-0.2346 -1.23927,0.1823 -2.47232,0.4134 -3.7178,0.5469 -2.81448,0.3016 -5.66594,0.034 -8.48774,0.1318 -3.3245,0 -6.64921,0.024 -9.97331,-0.047 -6.34078,-0.1136 -12.68736,-0.2723 -19.00684,-0.8362 -6.81327,-0.6657 -13.61417,-1.5154 -20.44329,-2.0082 -2.7513,-0.1985 -5.50731,-0.3252 -8.26087,-0.4893 -3.14714,-0.1875 -6.29418,-0.3769 -9.44126,-0.5653 -15.34717,-0.9549 -30.68743,-2.1268 -46.05421,-2.6777 -6.816,-0.2156 -13.63719,-0.3059 -20.45616,-0.3599 -2.3141,0.086 -4.58036,0.2317 -6.86061,0.6648 -0.57549,0.1093 -1.14755,0.2393 -1.71277,0.3931 -0.46584,0.1267 -1.76098,0.7408 -1.37739,0.4476 1.19026,-0.9095 2.56141,-1.5541 3.84213,-2.3311 0,0 -5.24237,2.0225 -5.24237,2.0225 z"
       inkscape:connector-curvature="0" />
    <path
       style="fill:#000000;fill-opacity:1;stroke:none"
       id="path3808"
       d="m 465.66537,1015.886 c 0.42803,-3.8789 0.8887,-7.7517 1.42983,-11.6173 0.67605,-4.64666 0.84698,-9.34185 0.96109,-14.02932 0.12499,-3.70124 -0.087,-7.4075 0.12079,-11.10499 0.30502,-3.51688 0.49923,-7.0404 0.61409,-10.56816 0.0545,-4.53839 0.72482,-9.03373 1.33499,-13.52156 0.53898,-5.43669 1.10101,-10.8454 2.42889,-16.15314 1.21899,-5.01243 2.60738,-9.98158 3.64434,-15.03638 0.76718,-4.04291 0.80511,-8.17771 0.84404,-12.27907 0.0228,-2.98316 -0.0142,-5.96618 -0.0455,-8.94911 -0.0155,-1.77691 -0.0191,-3.55397 -0.0365,-5.33087 0.004,-1.32401 0.0767,-2.63487 -0.20807,-3.9333 -0.54576,-1.06624 -1.31815,-1.96767 -1.76325,-3.09275 -0.4529,-0.79986 -0.89937,-1.53765 -1.12552,-2.43488 -0.14259,-0.55258 -0.14698,-1.12479 -0.16155,-1.69122 0,0 5.00557,-2.56749 5.00557,-2.56749 l 0,0 c 0.0148,0.52887 0.0171,1.06244 0.12025,1.58355 0.18903,0.87843 0.64665,1.58973 1.06718,2.37732 0.4388,1.1587 1.27555,2.05558 1.80152,3.16554 0.31432,1.34026 0.28203,2.67616 0.25615,4.04888 -0.0135,1.78419 -0.0104,3.56857 -0.0104,5.35277 -0.007,3.00134 -0.0104,6.00278 -0.0405,9.00398 -0.0745,4.12837 -0.0618,8.30147 -0.79871,12.37518 -1.10586,5.0632 -2.52784,10.04704 -3.71157,15.09203 -1.35015,5.28633 -1.96346,10.67732 -2.46692,16.10364 -0.58982,4.45122 -1.19972,8.91076 -1.23117,13.40955 -0.12602,3.5318 -0.33993,7.05892 -0.61315,10.58238 -0.22203,3.70375 -0.0745,7.4225 -0.21324,11.1305 -0.10532,4.7009 -0.24554,9.41412 -0.91419,14.07532 -0.53072,3.8336 -1.05231,7.6675 -1.25932,11.5357 0,0 -5.02922,2.4732 -5.02922,2.4732 z"
       inkscape:connector-curvature="0" />
    <path
       style="fill:#000000;fill-opacity:1;stroke:none"
       id="path3814"
       d="m 297.4037,929.0897 c 0.0865,-3.33614 0.0652,-6.67395 0.0727,-10.0109 -0.009,-3.11036 -0.0293,-6.22065 -0.0288,-9.33103 -0.001,-2.1345 -0.0194,-4.2689 -0.033,-6.40333 -0.11193,-3.79563 0.24561,-2.52683 5.25902,-5.15102 0.86286,0.99355 1.31585,2.27863 1.6691,3.52783 0.36442,1.53118 0.36088,3.10147 0.69888,4.63608 0.17826,1.02584 0.51677,1.9779 0.89549,2.93976 0.26675,0.78026 0.75631,1.4418 1.06519,2.20345 0.50626,1.12608 0.98295,2.2674 1.47365,3.40297 0.5819,1.22687 1.27584,2.39732 1.9015,3.60201 0.62622,1.37971 1.64314,2.43942 2.65767,3.52892 1.39226,1.05858 2.43176,2.44117 3.58793,3.72979 0.69741,1.05278 1.21903,2.18471 2.05245,3.14976 0.4998,0.74811 1.08662,1.37028 1.86094,1.82791 0.34906,0.15161 0.79108,0.084 1.17098,0.0774 1.67933,-0.11089 5.97421,-2.20821 -3.8705,2.3458 -0.19644,0.0908 0.22923,-0.36825 0.32213,-0.56374 0.11441,-0.24067 0.19891,-0.49445 0.29837,-0.74168 1.08248,-2.76386 1.89142,-5.61861 2.50062,-8.52066 0.51401,-2.69309 0.73944,-5.42935 0.824,-8.16638 0.0308,-1.29278 0.0219,-2.58625 0.001,-3.87911 -0.0174,-0.79992 -0.009,-1.60012 -0.0146,-2.40017 -0.005,-0.71881 -0.007,-1.43774 -0.002,-2.15657 -0.004,-0.51815 -0.008,-1.03612 -0.009,-1.55423 -0.002,-0.41217 -0.003,-0.82445 0.002,-1.23661 0,0 5.03973,-2.56787 5.03973,-2.56787 l 0,0 c 0.005,0.41155 0.004,0.8232 0.002,1.23476 -6.7e-4,0.52122 -0.005,1.04229 -0.009,1.56354 0.004,0.71873 0.003,1.43754 1.9e-4,2.15628 -0.002,0.80011 0.0104,1.60012 0.008,2.4002 -0.002,1.31108 -0.002,2.62229 -0.0523,3.93271 -0.12141,2.77749 -0.35026,5.55254 -0.86705,8.28838 -0.57373,2.90374 -1.34063,5.76227 -2.35745,8.54462 -0.0548,0.16506 -0.44095,1.36989 -0.51432,1.42294 -2.98703,2.16011 -3.41958,3.27506 -5.88051,3.22049 -0.47899,-0.013 -0.95576,-0.0434 -1.353,-0.34583 -0.76373,-0.54481 -1.38115,-1.21443 -1.90913,-1.99069 -0.80826,-0.97598 -1.37756,-2.07851 -2.04219,-3.1447 -1.11935,-1.31255 -2.18055,-2.65587 -3.55465,-3.72349 -1.07388,-1.11054 -2.09408,-2.23362 -2.76024,-3.65002 -0.63244,-1.21504 -1.32821,-2.39878 -1.91069,-3.63878 -0.50739,-1.13493 -0.97357,-2.28888 -1.52831,-3.3997 -0.28747,-0.77078 -0.79575,-1.42644 -1.05105,-2.21059 -0.38623,-0.9937 -0.75765,-1.96358 -0.91309,-3.0289 -0.34261,-1.52843 -0.35768,-3.08129 -0.6768,-4.61451 -0.27366,-1.00095 -0.61281,-2.28249 -1.4163,-2.9865 1.57276,-0.92942 3.14551,-1.8588 4.71827,-2.78819 -0.22882,0.12831 -0.26237,0.0959 -0.31871,0.43668 -0.0941,0.56886 0.0681,1.17767 -0.0154,1.74861 -0.0135,2.14562 -0.0319,4.29122 -0.033,6.43691 4.1e-4,3.12016 -0.0194,6.24023 -0.0288,9.36037 0.008,3.31228 -0.0144,6.62545 0.0727,9.93687 0,0 -5.00477,2.55007 -5.00477,2.55007 z"
       inkscape:connector-curvature="0" />
    <path
       style="fill:#000000;fill-opacity:1;stroke:none"
       id="path3816"
       d="m 356.45201,907.30345 c -2.657,-0.0867 -5.28999,-0.0877 -7.92012,0.31975 -0.50499,0.16624 -1.03422,0.27173 -1.51498,0.4987 -0.49027,0.23147 -1.87311,1.08389 -1.3765,0.86639 1.16788,-0.51147 2.18544,-1.36406 3.39979,-1.75251 0.49564,-0.15855 -0.79331,0.67487 -1.16607,1.03797 -0.7912,0.7707 -1.33528,1.45449 -2.04551,2.29441 -1.7726,2.1476 -3.14743,4.54058 -3.93398,7.21002 -0.62634,2.5318 -1.36603,5.0278 -2.1543,7.51385 -0.64484,1.89149 -1.11674,3.83288 -1.44484,5.80252 -0.0147,0.0973 0.0537,0.3003 -0.0442,0.29181 -0.1084,-0.009 -0.0149,-0.34908 -0.11462,-0.30558 -3.88481,1.69435 -6.33597,3.61951 -3.80703,1.53537 3.4894,-4.86121 3.90933,-2.22293 6.62946,-3.36446 0.22358,-0.0939 0.40218,-0.27298 0.61747,-0.38451 0.66641,-0.37156 1.44657,-0.43987 2.19555,-0.47981 1.19368,-0.14646 2.33744,0.19107 3.50339,0.3923 1.33525,0.24623 2.69035,0.34077 4.04516,0.3878 1.32335,0.0338 2.64741,0.0295 3.97106,0.0199 0.4303,0.001 0.78066,0.0522 1.16393,-0.16466 0.0925,-0.0523 0.35945,-0.22614 0.26687,-0.17407 -4.56463,2.56694 -5.80607,3.72105 -4.18664,2.26978 0.78374,-1.00029 1.35255,-2.14533 1.9077,-3.28199 0.58258,-1.33285 1.37085,-2.55916 1.89389,-3.91822 0.22213,-1.07609 0.66623,-2.06885 1.07332,-3.08346 0.66688,-1.72502 1.15608,-3.48744 1.45882,-5.31065 0.22645,-1.56586 0.27786,-3.14928 0.288,-4.72919 0.009,-0.96215 -0.001,-1.92431 -0.0134,-2.88637 -0.004,-0.65955 -0.003,-1.31913 -0.0114,-1.97865 -0.0471,-0.6659 0.18205,-0.30249 -0.25432,-0.25959 -0.53474,-0.008 -1.06944,0.007 -1.60415,0.008 -0.67407,0.005 -1.34815,0.001 -2.02225,0.007 -0.0829,8.5e-4 -0.16581,0.001 -0.24871,0.002 0,0 4.57657,-3.32616 4.57657,-3.32616 l 0,0 c 0.0808,6e-4 0.1616,0.001 0.24241,0.002 0.67377,0.002 1.34747,-0.003 2.02119,-0.0104 0.55052,-0.007 1.10428,-0.0194 1.65194,0.0457 0.51034,0.13934 0.7534,0.4338 0.67639,0.96335 -0.005,0.66094 -0.003,1.32195 -0.002,1.98289 -0.002,0.96938 4e-4,1.93879 -0.005,2.90816 -0.0353,1.60963 -0.0808,3.22275 -0.29156,4.8209 -0.28334,1.8511 -0.73365,3.6474 -1.38488,5.40334 -0.37153,1.02249 -0.87739,1.98499 -1.06086,3.06088 -0.45434,1.41676 -1.30231,2.63395 -1.90365,3.98695 -0.53481,1.16746 -1.09664,2.31936 -1.80379,3.39258 -1.45808,2.27152 -4.32979,3.66978 -6.97735,3.57587 -1.32522,-0.007 -2.65058,-0.0104 -3.97543,-0.0465 -1.36451,-0.0671 -2.72565,-0.20249 -4.06882,-0.45895 -1.14958,-0.19627 -2.2873,-0.42578 -3.45712,-0.24455 -0.73002,0.0965 -1.43006,0.26369 -2.06823,0.64979 -1.96812,0.97175 -6.57821,1.5139 2.38915,-1.86425 -1.65512,1.17775 -5.84445,5.68774 -6.39982,3.315 -0.0226,-0.0968 0.0543,-0.19131 0.0813,-0.28695 0.38275,-2.00028 0.8441,-3.9875 1.50865,-5.91535 0.8023,-2.4701 1.51257,-4.96176 2.13727,-7.48186 0.72269,-2.75187 2.10876,-5.21097 3.87354,-7.43987 3.17045,-3.84318 3.97385,-4.04639 9.14444,-7.18669 1.47147,-0.89366 1.38467,-0.74929 3.02087,-1.20089 2.68479,-0.35643 5.37306,-0.32862 8.07762,-0.33728 0,0 -4.55369,3.30843 -4.55369,3.30843 z"
       inkscape:connector-curvature="0" />
    <path
       style="fill:#000000;fill-opacity:1;stroke:none"
       id="path3818"
       d="m 236.6054,958.47902 c -0.0474,2.29656 -0.0462,4.59383 -0.0436,6.89077 0.003,2.11736 0.0149,4.23465 0.0227,6.35201 0.042,1.64648 -0.35922,3.25966 -0.56959,4.88513 -0.0781,1.59814 -0.432,3.13076 -1.01503,4.61626 -0.58611,1.38931 -1.30613,2.71171 -1.92593,4.08438 -0.74753,1.57849 -1.06675,3.28091 -1.2479,5.00331 -0.11182,1.23688 -0.10795,2.47892 -0.10726,3.71941 0.005,0.48003 0.002,0.2529 0.0104,0.68137 0,0 -5.03262,2.56912 -5.03262,2.56912 l 0,0 c 0.002,-0.43614 0.001,-0.20522 0.002,-0.69275 3e-5,-1.26431 0.0406,-2.52887 0.12576,-3.79037 0.16152,-1.76896 0.44446,-3.5279 1.16935,-5.16583 0.61397,-1.3827 1.28096,-2.70898 1.94342,-4.07586 0.62872,-1.42642 0.97643,-2.91519 1.06523,-4.47291 0.19189,-1.61147 0.60008,-3.20289 0.60794,-4.82716 0.008,-2.12506 0.0194,-4.25009 0.0227,-6.37517 0.002,-2.28213 0.004,-4.56461 -0.0436,-6.84634 0,0 5.01518,-2.55537 5.01518,-2.55537 z"
       inkscape:connector-curvature="0" />
    <path
       style="fill:#000000;fill-opacity:1;stroke:none"
       id="path3820"
       d="m 240.11036,960.86635 c 1.82063,0.0796 3.65462,-0.11067 5.46264,0.13606 1.31456,0.28379 2.62858,0.51214 3.97018,0.61049 1.24406,0.0734 2.49059,0.0734 3.73629,0.075 1.47414,0.0104 2.94831,0.003 4.42247,8.7e-4 1.10099,-0.0104 2.20201,-0.005 3.30301,-0.009 0.96616,-0.12844 1.78974,0.34498 2.71165,0.54375 0.62521,0.1172 0.32343,0.0642 0.90508,0.16048 0,0 -4.61868,3.22981 -4.61868,3.22981 l 0,0 c -0.58304,-0.11648 -0.27919,-0.0533 -0.91128,-0.19117 -0.88392,-0.22562 -1.70447,-0.56137 -2.63964,-0.43491 -1.09346,-0.003 -2.18695,0.001 -3.28042,-0.005 -1.47976,2.6e-4 -2.95949,1.7e-4 -4.43924,0.008 -1.25137,-0.007 -2.50351,-0.0246 -3.75194,-0.11865 -1.33758,-0.12437 -2.64251,-0.39863 -3.96267,-0.63723 -1.81371,-0.16632 -3.64183,-0.0417 -5.46116,-0.0584 0,0 4.55371,-3.30845 4.55371,-3.30845 z"
       inkscape:connector-curvature="0" />
    <path
       style="fill:#000000;fill-opacity:1;stroke:none"
       id="path3822"
       d="m 237.67301,975.49041 c 1.65347,0.0221 3.30729,0.0171 4.96085,0.008 1.02385,0.001 2.04768,-0.0125 3.07152,-0.012 0.42357,0.003 0.84717,-0.0131 1.27071,-0.008 0.35948,-0.002 0.7189,0.002 1.07839,8.1e-4 0.56212,-0.084 0.86319,0.15353 1.22044,0.56249 0,0 -4.84203,2.94017 -4.84203,2.94017 l 0,0 c -0.27034,-0.27028 -0.5987,-0.16466 -0.96082,-0.17334 -0.36021,-0.001 -0.72038,0.002 -1.0806,8e-4 -0.41654,0.005 -0.83313,-0.0114 -1.24973,-0.008 -1.01273,3.4e-4 -2.02548,-0.0131 -3.03823,-0.012 -1.66135,-0.009 -3.32295,-0.0133 -4.9842,0.008 0,0 4.5537,-3.30846 4.5537,-3.30846 z"
       inkscape:connector-curvature="0" />
    <path
       style="fill:#000000;fill-opacity:1;stroke:none"
       id="path3824"
       d="m 273.97279,963.45354 c -0.0437,2.22869 -0.0355,4.45804 -0.0289,6.68704 0.007,1.86017 0.0122,3.72035 0.0149,5.58054 -0.003,1.50741 0.009,3.01477 0.009,4.52218 -0.002,1.20756 -0.003,2.41519 0.0129,3.62267 0.008,0.88547 -7.2e-4,1.77075 -0.009,2.65617 -0.0104,1.53449 -0.0104,3.06901 -0.0115,4.60353 -0.001,1.47918 -0.001,2.95837 0.0126,4.43751 0.004,0.84861 0.003,1.69722 0.017,2.54574 0.0389,2.03168 1.28138,0.31454 -5.03155,2.38838 -0.16221,0.053 0.004,-0.3415 0.005,-0.5122 0.008,-0.84998 -0.0202,-0.38881 0.088,-1.30862 0.19797,-1.29517 0.44986,-2.59036 1.35123,-3.58225 2.40789,-2.22902 4.84791,-3.33249 7.84137,-3.37936 1.04821,-0.0104 2.09647,0.008 3.14464,0.0185 1.04566,1.1e-4 2.09129,0.007 3.13694,0.0104 0.92909,-0.005 1.8582,-0.003 2.78728,-0.008 0.93107,0.10061 1.85727,0.7999 2.64537,1.31206 0.89319,0.62771 1.75526,1.31937 2.78751,1.70609 0.69337,0.1007 1.12949,0.57026 1.66192,0.97716 0.57859,0.51416 1.1281,1.05412 1.75273,1.52371 0.20038,0.14398 0.10737,0.079 0.27828,0.19602 0,0 -4.78943,3.03474 -4.78943,3.03474 l 0,0 c -0.16832,-0.1332 -0.0766,-0.06 -0.27467,-0.2196 -0.59325,-0.48891 -1.13255,-1.03698 -1.73081,-1.51445 -0.51736,-0.36359 -0.94081,-0.73921 -1.58435,-0.87405 -1.01043,-0.48145 -1.90287,-1.15511 -2.82108,-1.78814 -0.76473,-0.45916 -1.56318,-1.06993 -2.48838,-1.03834 -0.92183,-0.003 -1.84369,-0.002 -2.76552,-0.009 -1.04732,0.002 -2.09464,0.005 -3.14188,-0.0114 -1.04426,-0.004 -2.0888,-0.0237 -3.13289,0.002 -0.51793,0.0285 -1.04201,0.0499 -1.54939,0.17004 -0.16936,0.0402 -0.64832,0.24014 -0.50079,0.14779 3.22016,-2.01579 6.02476,-3.39002 3.9552,-2.36648 -1.11261,0.70295 -1.3224,1.99451 -1.53228,3.21881 -0.0246,0.13932 -0.0496,1.69831 -0.1007,1.73353 -6.42993,4.44018 -5.07037,4.85518 -5.03156,2.73908 0.0139,-0.85437 0.0131,-1.70872 0.017,-2.56314 0.0138,-1.48337 0.0141,-2.9668 0.0125,-4.45024 -7.6e-4,-1.5306 -9.7e-4,-3.06122 -0.0115,-4.5918 -0.008,-0.88238 -0.0174,-1.76461 -0.009,-2.64703 0.0157,-1.21185 0.015,-2.42384 0.0129,-3.63578 3.4e-4,-1.51051 0.0129,-3.02098 0.009,-4.53151 0.002,-1.86523 0.008,-3.73047 0.0148,-5.59571 0.007,-2.21918 0.0151,-4.43874 -0.0289,-6.65762 0,0 5.00477,-2.55005 5.00477,-2.55005 z"
       inkscape:connector-curvature="0" />
    <path
       style="fill:#000000;fill-opacity:1;stroke:none"
       id="path3826"
       d="m 304.85102,965.79105 c -0.0249,1.31322 -0.0136,2.62681 -0.001,3.94012 -0.003,1.0616 -0.0799,2.10973 0.19656,3.1428 0.2795,0.87605 0.45513,1.77152 0.55684,2.68377 0.0608,1.01002 -0.003,2.00381 0.26123,2.98755 0.13713,0.71491 0.54026,1.31007 1.05863,1.8048 0.20306,0.11529 0.57894,0.0371 0.83977,0.0276 0.44447,-0.0132 0.88912,-0.0132 1.33371,-0.0216 0.079,4.9e-4 0.16503,0.034 0.23712,0.001 0.0764,-0.0344 0.24404,-0.2248 0.17047,-0.18472 -7.25905,3.95442 -5.33866,3.18613 -3.50744,1.73638 0.9336,-0.97554 1.81435,-2.01381 2.65516,-3.07308 1.10918,-1.68119 2.0112,-3.4914 2.81331,-5.33574 1.10348,-2.74434 2.25632,-5.46797 3.2913,-8.2393 0.59528,-1.70374 1.15551,-3.43937 1.9178,-5.07859 0.32561,-0.66213 0.17205,-0.33965 0.46222,-0.96672 0,0 5.11873,-2.33511 5.11873,-2.33511 l 0,0 c -0.29532,0.64111 -0.14197,0.31068 -0.46042,0.9911 -0.89047,1.57976 -1.407,3.37424 -2.03958,5.06306 -1.03094,2.77125 -2.19273,5.48963 -3.25856,8.2473 -0.75372,1.88917 -1.69387,3.69152 -2.70504,5.4519 -0.83288,1.0772 -1.7302,2.09001 -2.5833,3.14453 -0.8008,0.83462 0.13223,-0.0789 -0.70676,0.57732 -1.78754,1.3983 -3.6359,3.41945 -5.98413,3.33527 -0.44601,0.002 -0.89181,0.0153 -1.3378,0.0116 -0.4038,-0.0183 -0.81152,-0.0738 -1.09081,-0.40273 -0.53323,-0.59525 -0.99937,-1.27277 -1.16687,-2.06658 -0.28565,-1.01448 -0.3028,-2.01667 -0.31805,-3.06675 -0.0744,-0.88592 -0.22632,-1.7573 -0.5003,-2.60556 -0.30253,-1.08185 -0.30173,-2.15645 -0.2661,-3.27617 0.012,-1.31282 0.0236,-2.62592 -0.001,-3.93866 0,0 5.01519,-2.55537 5.01519,-2.55537 z"
       inkscape:connector-curvature="0" />
    <path
       style="fill:#000000;fill-opacity:1;stroke:none"
       id="path3828"
       d="m 309.72049,982.13984 c -0.0285,1.67794 -0.0128,3.35623 -0.0117,5.03434 0.005,1.20968 0.009,2.41938 0.0168,3.62905 -0.0104,1.27786 -0.0155,2.55566 -0.005,3.83356 0.10143,1.00046 -0.20514,1.95153 -0.4501,2.90834 -0.19632,0.72138 -0.28209,1.46332 -0.32494,2.20752 0,0 -5.0566,2.53595 -5.0566,2.53595 l 0,0 c 0.0546,-0.7785 0.11753,-1.558 0.29964,-2.31917 0.25461,-0.91395 0.58332,-1.82475 0.52868,-2.78333 0.009,-1.27593 0.004,-2.55178 -0.005,-3.82768 0.008,-1.21537 0.0114,-2.43077 0.0168,-3.64616 0.001,-1.67411 0.0169,-3.34841 -0.0117,-5.02236 0,0 5.00477,-2.55006 5.00477,-2.55006 z"
       inkscape:connector-curvature="0" />
    <path
       style="fill:#000000;fill-opacity:1;stroke:none"
       id="path3830"
       d="m 336.53649,969.04083 c -0.0704,2.87305 -0.063,5.74733 -0.0655,8.62104 0.002,3.33163 -0.004,6.66328 0.008,9.99489 -0.20727,2.35951 -0.24835,4.76636 -0.69207,7.09817 -0.24242,0.85373 -0.5898,1.66652 -0.76269,2.53893 -0.1032,0.63109 -0.0988,1.27093 -0.1092,1.90812 0,0 -5.03839,2.56462 -5.03839,2.56462 l 0,0 c -0.005,-0.664 0.0182,-1.3304 0.0826,-1.99101 0.11033,-0.90998 0.42368,-1.7557 0.78628,-2.59493 0.62584,-2.26645 0.52967,-4.70717 0.83271,-7.02686 0.0124,-3.33443 0.005,-6.6689 0.008,-10.00337 -0.002,-2.85141 0.005,-5.70347 -0.0655,-8.55423 0,0 5.01519,-2.55537 5.01519,-2.55537 z"
       inkscape:connector-curvature="0" />
    <path
       style="fill:#000000;fill-opacity:1;stroke:none"
       id="path3832"
       d="m 337.69656,964.11958 c 2.12828,0.0352 4.25687,0.019 6.3853,0.0134 1.44899,-0.15423 2.82828,0.24891 4.23332,0.52262 1.40006,0.58794 2.87442,0.82372 4.37454,0.9654 1.64785,0.11759 3.30065,0.13709 4.95204,0.13311 1.39274,0.004 2.78544,8.3e-4 4.17817,-0.003 0.76344,-0.005 0.40139,-0.002 1.08618,-0.009 0,0 -4.55396,3.30968 -4.55396,3.30968 l 0,0 c -0.67004,-0.004 -0.31497,-0.002 -1.06522,-0.005 -1.39682,7.3e-4 -2.79365,0.007 -4.19044,0.007 -1.65226,-0.0262 -3.30518,-0.0661 -4.953,-0.19841 -1.5199,-0.16846 -2.98918,-0.48268 -4.43452,-0.98959 -1.3682,-0.28653 -2.72426,-0.56751 -4.13439,-0.45614 -2.14074,-0.005 -4.28165,-0.0214 -6.42227,0.0134 0,0 4.54425,-3.30158 4.54425,-3.30158 z"
       inkscape:connector-curvature="0" />
    <path
       style="fill:#000000;fill-opacity:1;stroke:none"
       id="path3834"
       d="m 338.35021,980.89915 c 1.49783,-0.65212 2.94427,-1.38959 4.53182,-1.80565 1.07123,-0.28216 2.17876,-0.35416 3.28161,-0.36999 0.52682,-0.0104 1.05362,-0.002 1.58043,0.002 0,0 -4.57836,3.3194 -4.57836,3.3194 l 0,0 c -0.51609,-0.005 -1.03239,-0.0104 -1.54841,0.002 -1.06957,0.0465 -2.13784,0.1506 -3.16801,0.46169 -1.56108,0.49346 -3.00973,1.24404 -4.5201,1.8673 0,0 4.42102,-3.47651 4.42102,-3.47651 z"
       inkscape:connector-curvature="0" />
    <path
       style="fill:#000000;fill-opacity:1;stroke:none"
       id="path3838"
       d="m 336.79166,994.98917 c 1.57589,0.0222 3.15205,0.0113 4.72804,0.008 1.20809,-3.2e-4 2.41621,2.8e-4 3.62426,-0.0104 0.81359,-0.003 1.62715,0.003 2.44075,-0.002 0.64407,-0.001 1.28817,1.6e-4 1.93224,-0.004 0.57624,-0.0652 0.98187,0.36973 1.48987,0.59169 0.52146,0.21575 1.10944,0.20514 1.66634,0.22399 0.0754,0.001 0.15092,0.002 0.22639,0.003 0,0 -4.59262,3.30793 -4.59262,3.30793 l 0,0 c -0.0754,0 -0.15076,-0.0104 -0.22614,-0.0145 -0.61315,-0.0488 -1.23433,-0.10549 -1.78729,-0.40055 -0.46749,-0.23035 -0.80825,-0.47345 -1.3527,-0.38708 -0.64033,-0.004 -1.2807,-0.002 -1.92103,-0.004 -0.81183,-0.004 -1.62362,0.002 -2.43544,-0.002 -1.19878,-0.0104 -2.39762,-0.0104 -3.59643,-0.0104 -1.5833,-0.003 -3.16674,-0.014 -4.74995,0.008 0,0 4.55371,-3.30845 4.55371,-3.30845 z"
       inkscape:connector-curvature="0" />
    <path
       style="fill:#000000;fill-opacity:1;stroke:none"
       id="path3840"
       d="m 372.20208,972.43217 c -0.48665,2.84582 -0.59587,5.73881 -0.69803,8.6188 0.0595,2.92325 -0.30125,5.82029 -0.56227,8.72491 -0.19458,2.18031 -0.26406,4.36881 -0.29886,6.55665 -0.0716,1.52645 0.1043,3.06629 -0.0724,4.58537 -0.58172,2.7776 -1.16007,2.6487 -5.59127,3.5407 -0.31713,0.064 -0.0405,-0.6457 -0.0607,-0.9686 -0.051,-2.9128 -0.0627,-5.82654 -0.0501,-8.73978 0.003,-2.36099 -0.007,-4.72197 -0.0132,-7.08294 0.13113,-1.48918 0.47588,-2.94443 0.64246,-4.43049 0.007,-1.1447 0.17983,-2.21531 0.49289,-3.30807 0.40325,-1.62336 0.32163,-3.30754 0.53647,-4.95449 0.29233,-1.33233 0.4676,-2.68424 0.8564,-3.99306 0.7365,-2.59017 3.29088,-4.02723 6.12176,-4.43961 0.68901,-0.0403 1.37861,-0.0241 2.06805,-0.0114 0.73895,0.0114 1.47794,0.0179 2.21696,0.0159 0.673,-0.001 1.34598,0.003 2.01896,0.003 0.80276,-0.0735 1.02201,0.78128 1.48727,1.27099 0.57417,0.74884 0.62705,1.65297 0.68543,2.55996 0.053,1.86537 0.0294,3.73254 0.0307,5.59862 0.0179,1.38671 0.0173,2.7734 0.0128,4.16019 0.002,1.37419 -0.005,2.74828 -0.003,4.1225 -0.001,1.34254 -0.003,2.68508 0.008,4.02757 -0.0268,0.7209 0.0513,1.4449 -0.004,2.16422 -1.19116,2.69717 -4.08718,3.01603 -6.4636,2.9989 -0.71319,-0.0204 -1.16688,-0.71462 -1.66736,-1.14696 -0.52341,-0.71295 -0.78395,-1.5759 -1.20318,-2.3557 -0.31702,-0.59836 -0.78841,-1.09459 -1.25297,-1.58012 -0.40371,-0.70173 -0.96936,-1.14125 -1.75,-1.32612 0.008,-0.41063 -1.06918,0.1913 -0.82881,0.0604 7.17008,-3.90468 5.3719,-3.93918 4.33472,-2.11205 -2.25777,2.76296 -5.2227,5.11641 -5.83592,1.8593 -0.48547,-2.58981 3.14012,-3.69932 5.51488,-4.04595 1.00043,0.58563 0.96164,2.09929 1.18149,3.12381 0.33613,2.06334 0.98862,4.0469 1.51502,6.06421 0.55304,1.68273 1.25283,3.34294 2.03454,4.93417 0.58426,1.03673 1.34161,1.95393 2.0558,2.90191 0.48609,0.65659 0.90716,1.30509 1.67709,1.62589 0.56116,0.012 1.004,0.2606 1.4975,0.5264 0.63789,0.1277 1.03469,0.3436 1.40249,0.8833 0.10408,0.1823 0.0298,0.1559 0.17177,0.1626 0,0 -4.78601,3.0316 -4.78601,3.0316 l 0,0 c -0.2403,-0.242 -0.16438,-0.1234 -0.26923,-0.3254 -0.28923,-0.4225 -0.81193,-0.4247 -1.2452,-0.6528 -0.48889,-0.244 -1.00395,-0.2991 -1.49825,-0.5189 -0.77196,-0.4529 -1.25579,-1.1479 -1.77025,-1.8672 -0.74651,-0.9683 -1.53044,-1.9188 -2.10751,-3.00129 -0.78274,-1.63359 -1.46392,-3.34151 -2.04739,-5.05417 -0.5151,-2.02348 -1.19297,-4.00483 -1.55338,-6.06603 -0.077,-0.34135 -0.31347,-2.47807 -0.7539,-2.33687 -1.94746,0.6814 0.44414,-0.13867 4.36079,-2.57783 0.058,-0.0361 -0.46407,-0.21846 -0.42163,0.26177 0.008,0.0945 0.0195,0.18885 0.0293,0.2833 0.0288,0.19543 0.10487,0.3861 0.10279,0.58363 -4.7e-4,0.0457 0.0442,-0.16036 0.004,-0.13723 -4.57935,2.68335 -5.94186,4.05765 -4.44521,2.58265 0.0682,-0.0703 0.15592,-0.12606 0.2047,-0.21106 0.0567,-0.0986 0.008,-0.26301 0.1032,-0.32525 3.50134,-2.28912 3.5083,-3.55986 6.03447,-2.82465 0.80435,0.31523 1.44517,0.81949 1.90578,1.56259 0.49525,0.5265 1.00279,1.06342 1.33012,1.71501 0.3719,0.72462 0.63812,1.51572 1.10088,2.17666 0.44731,0.40088 0.78863,0.87377 1.44629,0.80365 2.46188,-0.0245 3.33664,-1.52228 -3.47685,2.5864 -0.0497,0.03 0.11622,0.002 0.17433,0.002 0.0572,0.003 0.13356,0.0535 0.17159,0.0104 0.16156,-0.18215 -0.0927,-1.62514 0.0186,-1.8883 0.0113,-1.34534 0.0104,-2.69071 0.008,-4.03608 0.002,-1.37359 -0.005,-2.74707 -0.001,-4.12064 -0.002,-1.39336 0.003,-2.78657 0.026,-4.17977 0.004,-1.84784 0.0129,-3.69652 -0.0608,-5.54328 -0.0468,-0.76797 -0.0385,-1.57469 -0.53021,-2.21105 -0.41086,-0.46962 -0.51101,-0.98148 -1.21863,-0.88499 -0.67548,-5.4e-4 -1.35092,0.004 -2.02639,-0.001 -0.73835,-0.009 -1.47674,-0.0114 -2.21505,-0.0223 -0.66168,-0.003 -1.33665,-0.0317 -1.98212,0.13798 -1.90017,0.7759 -0.32844,0.14949 4.27048,-2.57779 0.0806,-0.0478 -0.16663,0.0866 -0.24362,0.13984 -0.36938,0.25553 -0.42605,0.64527 -0.58799,1.04698 -0.44065,1.28119 -0.58772,2.61088 -0.91334,3.92343 -0.29816,1.6471 -0.16101,3.34228 -0.49147,4.98893 -0.23253,1.08866 -0.6272,2.09569 -0.54401,3.24544 -0.14234,1.48013 -0.4328,2.92902 -0.69193,4.39135 -0.0121,2.37041 -0.0337,4.74075 -0.0415,7.11117 0.002,2.89118 -0.05,5.78487 0.0903,8.6738 0.0236,0.2924 0.30033,0.6948 0.0705,0.8772 -7.31787,5.8083 -5.10808,4.062 -4.40935,1.5867 0.30577,-1.4807 0.0268,-3.033 0.14878,-4.5349 0.0329,-2.20742 0.11457,-4.41447 0.31848,-6.61363 0.2705,-2.90106 0.65413,-5.79314 0.6101,-8.71329 0.0909,-2.88029 0.20862,-5.7631 0.54968,-8.62667 0,0 5.04533,-2.46663 5.04533,-2.46663 z"
       inkscape:connector-curvature="0" />
    <path
       style="fill:#000000;fill-opacity:1;stroke:none"
       id="path3842"
       d="m 409.98112,969.04605 c -2.21057,0.0346 -4.44017,-0.17149 -6.63799,0.10386 0.90769,-0.89622 -4.92018,2.28131 -3.51758,1.53835 4.09278,-2.16796 5.17798,-3.17128 3.23901,-1.53303 -1.21728,1.09113 -2.33679,2.2845 -3.52361,3.40995 -0.97404,0.96668 -1.4106,2.26565 -1.71076,3.57127 -0.20686,1.46277 -0.46312,2.97168 -0.29288,4.45025 0.2915,0.91624 0.97107,1.2119 1.84585,1.37229 0.84411,0.0795 1.69384,0.0619 2.54047,0.047 0.7535,0.26051 1.1388,0.83177 1.50362,1.50187 0.49625,1.34515 0.46558,2.83379 0.50683,4.25098 0.0319,1.97982 0.0189,3.9602 0.007,5.94016 -0.003,2.24475 7.4e-4,4.48948 -0.005,6.73416 -0.001,1.9042 0.0117,3.8082 0.0193,5.7123 0.008,0.9009 0.0104,1.8017 0.03,2.7025 0.0649,2.2948 -0.63768,1.3041 -5.16791,3.1098 -0.0772,0.031 -1.02112,-1.2863 -1.0797,-1.3687 -0.61359,-1.0531 -1.06337,-2.1635 -1.67377,-3.226 -0.64939,-1.0067 -1.52647,-1.8102 -2.26035,-2.7489 -0.62274,-0.5961 -0.74506,-1.5232 -1.39208,-2.0811 -0.0571,-0.038 -0.1141,-0.076 -0.17117,-0.1143 0,0 4.78683,-3.01847 4.78683,-3.01847 l 0,0 c 0.0659,0.0571 0.13203,0.11368 0.19805,0.17058 0.60902,0.63809 0.80644,1.50649 1.40162,2.16299 0.76285,0.9462 1.63526,1.795 2.29231,2.8253 0.60865,1.0432 1.07075,2.1218 1.65089,3.1711 0.30479,0.4074 0.34574,0.4971 0.70484,0.8449 0.0535,0.052 0.24022,0.096 0.17738,0.1358 -1.53268,0.9748 -3.17218,1.774 -4.70718,2.7451 -0.0625,0.039 0.11981,0.1252 0.19253,0.1111 0.0488,-0.01 0.002,-0.1 0.003,-0.1492 0.0195,-0.9108 0.0223,-1.8219 0.0299,-2.7329 0.008,-1.9111 0.0207,-3.8219 0.0207,-5.7329 -0.004,-2.2451 0.002,-4.48996 0.005,-6.73494 -0.007,-1.96944 8.7e-4,-3.93902 -0.0335,-5.90824 -0.035,-1.32933 -0.004,-2.72104 -0.42773,-3.99415 -0.26576,-0.49184 -0.55665,-0.9747 -1.1737,-0.98823 -0.87371,3.4e-4 -1.75779,0.0116 -2.6179,-0.1622 -1.05059,-0.31052 -1.80491,-0.88609 -2.1729,-1.95821 -0.25341,-1.53071 0.0821,-3.10931 0.23382,-4.6382 0.26153,-1.38523 0.64394,-2.75414 1.54481,-3.87194 1.21239,-1.12494 2.37327,-2.29531 3.55309,-3.44961 2.79435,-2.41949 6.26159,-4.54533 9.91153,-5.41149 2.23263,-0.15418 4.47466,-0.0177 6.71107,-0.0905 0,0 -4.54424,3.30158 -4.54424,3.30158 z"
       inkscape:connector-curvature="0" />
    <path
       style="fill:#000000;fill-opacity:1;stroke:none"
       id="path3844"
       d="m 425.90576,979.60266 c -0.0528,2.24338 -0.0419,4.48777 -0.0351,6.7316 -0.004,1.82457 0.002,3.64927 0.0306,5.47364 9.6e-4,0.17174 0.002,0.34349 0.003,0.51524 0,0 -5.01188,2.55369 -5.01188,2.55369 l 0,0 c 9.5e-4,-0.17272 0.002,-0.34544 0.003,-0.51818 0.0283,-1.83478 0.0349,-3.66989 0.0306,-5.50487 0.007,-2.23188 0.0181,-4.46434 -0.0351,-6.69575 0,0 5.01519,-2.55537 5.01519,-2.55537 z"
       inkscape:connector-curvature="0" />
    <path
       style="fill:#000000;fill-opacity:1;stroke:none"
       id="path3846"
       d="m 424.28087,966.60349 c -0.0727,2.89819 -0.0619,5.79793 -0.0643,8.69686 0.013,2.4031 0.0325,4.80603 0.0359,7.20919 0.009,1.48794 0.007,2.97603 0.0272,4.46389 -0.004,0.9745 0.004,1.94898 0.003,2.92345 0.003,0.48918 0.001,0.25656 0.007,0.69787 0,0 -5.03352,2.5647 -5.03352,2.5647 l 0,0 c 0.005,-0.44611 0.003,-0.21128 0.007,-0.70448 -5.1e-4,-0.97579 0.009,-1.95158 0.003,-2.92741 0.0201,-1.49708 0.0181,-2.99443 0.0272,-4.49161 0.003,-2.41535 0.0229,-4.83048 0.0359,-7.24579 -0.002,-2.87706 0.009,-5.75499 -0.0643,-8.6313 0,0 5.01519,-2.55537 5.01519,-2.55537 z"
       inkscape:connector-curvature="0" />
    <path
       style="fill:#000000;fill-opacity:1;stroke:none"
       id="path3848"
       d="m 424.53602,1006.3635 c 1.45549,0.025 2.91122,0.01 4.36677,0 2.18891,-0.036 0.94646,-0.078 -4.39973,2.6358 -0.16798,0.085 -0.26976,-0.2689 -0.43251,-0.3637 -0.20866,-0.1217 -0.59449,-0.2508 -0.81803,-0.3323 -0.7125,-0.271 -1.53669,-0.091 -2.20251,-0.4401 -0.77478,-0.9538 -1.36678,-2.0564 -2.02842,-3.0955 -0.44413,-0.7026 -0.76873,-1.4553 -1.04622,-2.2351 0,0 4.92576,-2.71673 4.92576,-2.71673 l 0,0 c 0.24124,0.74593 0.53781,1.46293 0.9633,2.12643 0.59633,0.9285 1.10835,1.976 1.87318,2.7668 0.7367,0.1282 1.49149,0.1814 2.19482,0.463 3.34557,1.4949 1.47933,4.0151 -3.57474,4.4936 -1.45843,0 -2.917,-0.022 -4.37536,0 0,0 4.55369,-3.3084 4.55369,-3.3084 z"
       inkscape:connector-curvature="0" />
  </g>
</svg>
